<svg width="7" height="33" viewBox="0 0 7 33" fill="none" xmlns="http://www.w3.org/2000/svg">
<path d="M6.12341 18.1502C5.99627 19.4658 5.78401 20.4451 5.48716 21.0882C5.19084 21.7307 4.65967 22.0533 3.89523 22.0533C3.7518 22.0533 3.62307 22.0297 3.4954 22.0055C3.36668 22.0297 3.23954 22.0533 3.09663 22.0533C2.33324 22.0533 1.80312 21.7307 1.5047 21.0882C1.2089 20.4451 0.996117 19.4658 0.869498 18.1502L0.190692 7.99436C0.0635475 6.01468 -2.63032e-05 4.5935 -2.63032e-05 3.73186C-2.63032e-05 2.55813 0.307329 1.64237 0.920986 0.98616C1.53727 0.32942 2.3469 0 3.3504 0C3.40294 0 3.44339 0.012084 3.49435 0.0141855C3.54532 0.012084 3.5863 0 3.63831 0C4.64286 0 5.45144 0.328895 6.0672 0.98616C6.6819 1.6429 6.98926 2.55866 6.98926 3.73238C6.98926 4.59455 6.92516 6.01521 6.79854 7.99488L6.12026 18.1502" fill="#BE212F"/>
<path d="M3.47563 25.762C4.44708 25.762 5.27667 26.0704 5.96389 26.6835C6.65005 27.3003 6.99365 28.0453 6.99365 28.9206C6.99365 29.9126 6.64637 30.6886 5.95285 31.2528C5.25723 31.8182 4.44708 32.1029 3.52292 32.1029C2.58036 32.1029 1.75918 31.8224 1.05673 31.2649C0.35428 30.7064 0.00594554 29.9252 0.00594554 28.9201C0.00594554 28.0448 0.342196 27.2998 1.01312 26.683C1.68352 26.0704 2.50471 25.762 3.47773 25.762" fill="#BE212F"/>
</svg>
