<svg width="22" height="22" viewBox="0 0 22 22" fill="none" xmlns="http://www.w3.org/2000/svg">
<path d="M15.3398 8.3218C15.4358 8.23224 15.5133 8.12464 15.5678 8.00513C15.6223 7.88563 15.6527 7.75656 15.6573 7.62531C15.6619 7.49405 15.6406 7.36318 15.5946 7.24015C15.5486 7.11713 15.4788 7.00437 15.3893 6.90831C15.2997 6.81224 15.1921 6.73476 15.0726 6.68029C14.9531 6.62581 14.824 6.59541 14.6928 6.59081C14.5615 6.58621 14.4306 6.60751 14.3076 6.6535C14.1846 6.69948 14.0718 6.76924 13.9758 6.85881L11.0498 9.58681L8.32176 6.65981C8.13923 6.47285 7.89078 6.36476 7.62956 6.35867C7.36834 6.35258 7.11512 6.44897 6.92407 6.62721C6.73302 6.80545 6.61932 7.05139 6.6073 7.3124C6.59529 7.57341 6.6859 7.82876 6.85977 8.02381L9.58777 10.9498L6.66077 13.6778C6.56131 13.7665 6.48057 13.8741 6.4233 13.9944C6.36602 14.1147 6.33336 14.2452 6.32723 14.3783C6.3211 14.5114 6.34163 14.6444 6.38761 14.7694C6.43359 14.8944 6.5041 15.009 6.59498 15.1065C6.68587 15.2039 6.79531 15.2822 6.91687 15.3367C7.03843 15.3912 7.16966 15.4209 7.30286 15.424C7.43605 15.4271 7.56853 15.4036 7.6925 15.3548C7.81647 15.306 7.92944 15.2329 8.02476 15.1398L10.9508 12.4128L13.6788 15.3388C13.7668 15.4401 13.8744 15.5226 13.9951 15.5814C14.1157 15.6403 14.247 15.6742 14.381 15.6812C14.5151 15.6883 14.6492 15.6682 14.7753 15.6223C14.9015 15.5764 15.0171 15.5056 15.1153 15.414C15.2134 15.3225 15.2922 15.2121 15.3468 15.0895C15.4014 14.9669 15.4308 14.8345 15.4332 14.7003C15.4356 14.5661 15.4109 14.4328 15.3607 14.3083C15.3104 14.1839 15.2356 14.0708 15.1408 13.9758L12.4138 11.0498L15.3398 8.3218Z" fill="#FF0000"/>
<path fill-rule="evenodd" clip-rule="evenodd" d="M0 11C0 4.925 4.925 0 11 0C17.075 0 22 4.925 22 11C22 17.075 17.075 22 11 22C4.925 22 0 17.075 0 11ZM11 20C9.8181 20 8.64778 19.7672 7.55585 19.3149C6.46392 18.8626 5.47177 18.1997 4.63604 17.364C3.80031 16.5282 3.13738 15.5361 2.68508 14.4442C2.23279 13.3522 2 12.1819 2 11C2 9.8181 2.23279 8.64778 2.68508 7.55585C3.13738 6.46392 3.80031 5.47177 4.63604 4.63604C5.47177 3.80031 6.46392 3.13738 7.55585 2.68508C8.64778 2.23279 9.8181 2 11 2C13.3869 2 15.6761 2.94821 17.364 4.63604C19.0518 6.32387 20 8.61305 20 11C20 13.3869 19.0518 15.6761 17.364 17.364C15.6761 19.0518 13.3869 20 11 20Z" fill="#FF0000"/>
</svg>
