<svg width="31" height="31" viewBox="0 0 31 31" fill="none" xmlns="http://www.w3.org/2000/svg">
<path d="M5.66041 0C2.52479 0 0 2.52479 0 5.6604V25.3396C0 28.4752 2.52479 31 5.66041 31H16.3264V18.8809H13.1217V14.5177H16.3264V10.7899C16.3264 7.86121 18.2198 5.17215 22.5816 5.17215C24.3476 5.17215 25.6535 5.34169 25.6535 5.34169L25.5508 9.41626C25.5508 9.41626 24.2189 9.40368 22.7656 9.40368C21.1927 9.40368 20.9405 10.1284 20.9405 11.3315V14.5177H25.6757L25.4694 18.8809H20.9405V31H25.3396C28.4752 31 31 28.4752 31 25.3396V5.66043C31 2.52482 28.4752 3.09999e-05 25.3396 3.09999e-05L5.66041 0Z" fill="#989898"/>
</svg>
