<svg width="33" height="28" viewBox="0 0 33 28" fill="none" xmlns="http://www.w3.org/2000/svg">
<path d="M25.7336 27.5343C25.5853 27.6819 25.4091 27.799 25.2151 27.879C25.0212 27.9589 24.8133 28 24.6033 28C24.3933 28 24.1854 27.9589 23.9914 27.879C23.7974 27.799 23.6212 27.6819 23.4729 27.5343L20.0738 24.1582C19.9254 24.0108 19.8076 23.8357 19.7273 23.6431C19.647 23.4504 19.6056 23.244 19.6056 23.0355C19.6056 22.827 19.647 22.6205 19.7273 22.4279C19.8076 22.2352 19.9254 22.0602 20.0738 21.9128C20.3736 21.615 20.7802 21.4477 21.2042 21.4477C21.4141 21.4477 21.622 21.4888 21.8159 21.5686C22.0099 21.6484 22.1861 21.7653 22.3345 21.9128L24.5953 24.1582L30.2711 18.5207C30.4195 18.3733 30.5957 18.2564 30.7897 18.1766C30.9836 18.0968 31.1915 18.0557 31.4014 18.0557C31.6114 18.0557 31.8192 18.0968 32.0132 18.1766C32.2071 18.2564 32.3834 18.3733 32.5318 18.5207C32.6802 18.6682 32.798 18.8432 32.8783 19.0359C32.9587 19.2285 33 19.435 33 19.6435C33 19.852 32.9587 20.0584 32.8783 20.2511C32.798 20.4437 32.6802 20.6187 32.5318 20.7662L25.7336 27.5343ZM16.1617 25.48H3.20668C1.44301 25.48 0 24.0467 0 22.295V3.185C0 1.43325 1.44301 0 3.20668 0H28.8601C30.6238 0 32.0668 1.43325 32.0668 3.185V13.8229C30.3569 13.0149 28.4688 12.6501 26.5786 12.7625C24.6885 12.8749 22.8577 13.4608 21.257 14.4656C19.6563 15.4704 18.3378 16.8613 17.4244 18.5088C16.511 20.1563 16.0325 22.0067 16.0334 23.8875C16.0334 24.4289 16.0815 24.9544 16.1617 25.48ZM15.1836 13.807C15.6967 14.1255 16.3701 14.1255 16.8832 13.807L28.2188 6.76812C28.3796 6.67848 28.5204 6.55737 28.6326 6.41212C28.7449 6.26687 28.8264 6.10051 28.872 5.92309C28.9177 5.74567 28.9267 5.5609 28.8984 5.37995C28.8701 5.19899 28.8051 5.02563 28.7074 4.87034C28.6097 4.71505 28.4812 4.58107 28.3299 4.4765C28.1785 4.37194 28.0074 4.29897 27.8268 4.262C27.6462 4.22503 27.46 4.22484 27.2793 4.26144C27.0987 4.29804 26.9274 4.37066 26.7758 4.47492L16.0334 11.1475L5.29103 4.47492C5.13945 4.37066 4.96816 4.29804 4.7875 4.26144C4.60685 4.22484 4.4206 4.22503 4.24003 4.262C4.05945 4.29897 3.88831 4.37194 3.73695 4.4765C3.58559 4.58107 3.45717 4.71505 3.35945 4.87034C3.26174 5.02563 3.19676 5.19899 3.16845 5.37995C3.14015 5.5609 3.1491 5.74567 3.19478 5.92309C3.24045 6.10051 3.3219 6.26687 3.43418 6.41212C3.54646 6.55737 3.68725 6.67848 3.84802 6.76812L15.1836 13.807Z" fill="#3AC848"/>
</svg>
