<svg width="31" height="31" viewBox="0 0 31 31" fill="none" xmlns="http://www.w3.org/2000/svg">
<path d="M20.2631 0H10.7523C2.06615 0 0 2.06615 0 10.7368V20.2476C0 28.9323 2.05065 31 10.7368 31H20.2476C28.9323 31 31 28.9493 31 20.2631V10.7523C31 2.06615 28.9493 0 20.2631 0ZM25.0263 22.1185H22.7649C21.9093 22.1185 21.6519 21.4256 20.1174 19.8911C18.7782 18.6 18.2125 18.4388 17.873 18.4388C17.4049 18.4388 17.2763 18.5674 17.2763 19.2138V21.2474C17.2763 21.7976 17.098 22.12 15.6612 22.12C14.2667 22.0263 12.9145 21.6027 11.7158 20.884C10.5172 20.1653 9.50641 19.1721 8.7668 17.9862C7.01091 15.8007 5.78916 13.2357 5.1987 10.495C5.1987 10.1556 5.32735 9.8487 5.9737 9.8487H8.2336C8.81485 9.8487 9.0241 10.1075 9.25195 10.7043C10.3493 13.9345 12.2217 16.7431 12.9812 16.7431C13.2726 16.7431 13.3998 16.6145 13.3998 15.8875V12.5612C13.3036 11.0437 12.4976 10.9151 12.4976 10.3664C12.508 10.2217 12.5743 10.0867 12.6825 9.99003C12.7908 9.89338 12.9324 9.84269 13.0773 9.8487H16.6299C17.1151 9.8487 17.2763 10.0905 17.2763 10.6718V15.1606C17.2763 15.6457 17.4855 15.8069 17.6313 15.8069C17.9226 15.8069 18.1474 15.6457 18.6806 15.1125C19.8258 13.7159 20.7615 12.1599 21.4582 10.4935C21.5294 10.2933 21.6642 10.122 21.8419 10.0055C22.0196 9.88913 22.2305 9.83404 22.4424 9.8487H24.7039C25.3812 9.8487 25.5254 10.1882 25.3812 10.6718C24.559 12.5138 23.5415 14.2624 22.3463 15.8875C22.103 16.2595 22.0053 16.4532 22.3463 16.8888C22.5711 17.2282 23.3631 17.8901 23.8963 18.5194C24.6712 19.2923 25.3146 20.1865 25.8013 21.1668C25.995 21.7961 25.6711 22.12 25.0263 22.12V22.1185Z" fill="#989898"/>
</svg>
